custom-analysis
version=1
nRows=5
nColumns=133
inDegrees=no

This file contains tibia displacement and acting force.

Units are S.I. units (seconds, meters, Newtons, ...)
Angles are in degrees.

endheader
time	APT	knee_angle	aACL_R_force	pACL_R_force	aPCL_R_force	pPCL_R_force	aMCL_R_force	aLCL_R_force	aPCL_L_force	pPCL_L_force	aMCL_L_force	aLCL_L_force	aACL_R_length	pACL_R_length	aPCL_R_length	pPCL_R_length	aMCL_R_length	aLCL_R_length	aPCL_L_length	pPCL_L_length	aMCL_L_length	aLCL_L_length	aACL_R_strain	pACL_R_strain	aPCL_R_strain	pPCL_R_strain	aMCL_R_strain	aLCL_R_strain	aPCL_L_strain	pPCL_L_strain	aMCL_L_strain	aLCL_L_strain	femur_lat_meniscii_l.femur_lat_l.force.X	femur_lat_meniscii_l.femur_lat_l.force.Y	femur_lat_meniscii_l.femur_lat_l.force.Z	femur_lat_meniscii_l.femur_lat_l.torque.X	femur_lat_meniscii_l.femur_lat_l.torque.Y	femur_lat_meniscii_l.femur_lat_l.torque.Z	femur_lat_meniscii_l.meniscus_lat_l.force.X	femur_lat_meniscii_l.meniscus_lat_l.force.Y	femur_lat_meniscii_l.meniscus_lat_l.force.Z	femur_lat_meniscii_l.meniscus_lat_l.torque.X	femur_lat_meniscii_l.meniscus_lat_l.torque.Y	femur_lat_meniscii_l.meniscus_lat_l.torque.Z	femur_med_meniscii_l.femur_med_l.force.X	femur_med_meniscii_l.femur_med_l.force.Y	femur_med_meniscii_l.femur_med_l.force.Z	femur_med_meniscii_l.femur_med_l.torque.X	femur_med_meniscii_l.femur_med_l.torque.Y	femur_med_meniscii_l.femur_med_l.torque.Z	femur_med_meniscii_l.meniscus_med_l.force.X	femur_med_meniscii_l.meniscus_med_l.force.Y	femur_med_meniscii_l.meniscus_med_l.force.Z	femur_med_meniscii_l.meniscus_med_l.torque.X	femur_med_meniscii_l.meniscus_med_l.torque.Y	femur_med_meniscii_l.meniscus_med_l.torque.Z	femur_lat_meniscii_r.femur_lat_r.force.X	femur_lat_meniscii_r.femur_lat_r.force.Y	femur_lat_meniscii_r.femur_lat_r.force.Z	femur_lat_meniscii_r.femur_lat_r.torque.X	femur_lat_meniscii_r.femur_lat_r.torque.Y	femur_lat_meniscii_r.femur_lat_r.torque.Z	femur_lat_meniscii_r.meniscus_lat_r.force.X	femur_lat_meniscii_r.meniscus_lat_r.force.Y	femur_lat_meniscii_r.meniscus_lat_r.force.Z	femur_lat_meniscii_r.meniscus_lat_r.torque.X	femur_lat_meniscii_r.meniscus_lat_r.torque.Y	femur_lat_meniscii_r.meniscus_lat_r.torque.Z	femur_med_meniscii_r.femur_med_r.force.X	femur_med_meniscii_r.femur_med_r.force.Y	femur_med_meniscii_r.femur_med_r.force.Z	femur_med_meniscii_r.femur_med_r.torque.X	femur_med_meniscii_r.femur_med_r.torque.Y	femur_med_meniscii_r.femur_med_r.torque.Z	femur_med_meniscii_r.meniscus_med_r.force.X	femur_med_meniscii_r.meniscus_med_r.force.Y	femur_med_meniscii_r.meniscus_med_r.force.Z	femur_med_meniscii_r.meniscus_med_r.torque.X	femur_med_meniscii_r.meniscus_med_r.torque.Y	femur_med_meniscii_r.meniscus_med_r.torque.Z	femur_med_tibia_l.tibia_upper_l.force.X	femur_med_tibia_l.tibia_upper_l.force.Y	femur_med_tibia_l.tibia_upper_l.force.Z	femur_med_tibia_l.tibia_upper_l.torque.X	femur_med_tibia_l.tibia_upper_l.torque.Y	femur_med_tibia_l.tibia_upper_l.torque.Z	femur_med_tibia_l.femur_med_l.force.X	femur_med_tibia_l.femur_med_l.force.Y	femur_med_tibia_l.femur_med_l.force.Z	femur_med_tibia_l.femur_med_l.torque.X	femur_med_tibia_l.femur_med_l.torque.Y	femur_med_tibia_l.femur_med_l.torque.Z	femur_lat_tibia_l.tibia_upper_l.force.X	femur_lat_tibia_l.tibia_upper_l.force.Y	femur_lat_tibia_l.tibia_upper_l.force.Z	femur_lat_tibia_l.tibia_upper_l.torque.X	femur_lat_tibia_l.tibia_upper_l.torque.Y	femur_lat_tibia_l.tibia_upper_l.torque.Z	femur_lat_tibia_l.femur_lat_l.force.X	femur_lat_tibia_l.femur_lat_l.force.Y	femur_lat_tibia_l.femur_lat_l.force.Z	femur_lat_tibia_l.femur_lat_l.torque.X	femur_lat_tibia_l.femur_lat_l.torque.Y	femur_lat_tibia_l.femur_lat_l.torque.Z	femur_med_tibia_r.tibia_upper_r.force.X	femur_med_tibia_r.tibia_upper_r.force.Y	femur_med_tibia_r.tibia_upper_r.force.Z	femur_med_tibia_r.tibia_upper_r.torque.X	femur_med_tibia_r.tibia_upper_r.torque.Y	femur_med_tibia_r.tibia_upper_r.torque.Z	femur_med_tibia_r.femur_med_r.force.X	femur_med_tibia_r.femur_med_r.force.Y	femur_med_tibia_r.femur_med_r.force.Z	femur_med_tibia_r.femur_med_r.torque.X	femur_med_tibia_r.femur_med_r.torque.Y	femur_med_tibia_r.femur_med_r.torque.Z	femur_lat_tibia_r.tibia_upper_r.force.X	femur_lat_tibia_r.tibia_upper_r.force.Y	femur_lat_tibia_r.tibia_upper_r.force.Z	femur_lat_tibia_r.tibia_upper_r.torque.X	femur_lat_tibia_r.tibia_upper_r.torque.Y	femur_lat_tibia_r.tibia_upper_r.torque.Z	femur_lat_tibia_r.femur_lat_r.force.X	femur_lat_tibia_r.femur_lat_r.force.Y	femur_lat_tibia_r.femur_lat_r.force.Z	femur_lat_tibia_r.femur_lat_r.torque.X	femur_lat_tibia_r.femur_lat_r.torque.Y	femur_lat_tibia_r.femur_lat_r.torque.Z	femur_lat_meniscii_force_r	femur_med_meniscii_force_r	femur_lat_tibia_force_r	femur_med_tibia_force_r
      0.00000000	      0.00000000	     20.00008554	      0.00000000	      0.00000000	      1.73067428	     39.60002205	      0.00000000	      4.03503607	      0.00000000	      0.00000000	      0.00000001	      0.00000000	      0.03247011	      0.02502673	      0.03126165	      0.03045851	      0.06060291	      0.06094795	      0.01525851	      0.01651186	      0.06550154	      0.04489616	     -0.11779188	     -0.15332091	      0.00534964	      0.01909502	     -0.03377196	      0.00800562	      0.00000079	     -0.32847694	      0.00000060	     -0.00000086	      2.76307435	     50.99597937	     -9.56042239	      5.21997485	     -0.02578839	      1.48581788	     -2.76307435	    -50.99597937	      9.56042239	     -1.74637766	      0.02558040	     -0.48301696	     -3.31599387	     20.97615968	     -3.40468921	      0.94473225	     -0.02138609	     -1.00501789	      3.31599387	    -20.97615968	      3.40468921	      0.28075727	      0.00368718	     -0.29758878	   3013.25548926	   4095.96346974	     43.78009039	   -121.54311000	     77.46086807	   1246.65577334	  -3013.25548926	  -4095.96346974	    -43.78009039	    124.70684762	    -92.33392032	    -72.91838438	    -73.78290210	    661.98446017	    -33.61563334	     26.61787785	      1.96030484	    -20.52832385	     73.78290210	   -661.98446017	     33.61563334	    -10.54514118	     -1.42617070	     -4.23112792	      0.00000000	      0.00000000	      0.00000000	      0.00000000	      0.00000000	      0.00000000	      0.00000000	      0.00000000	      0.00000000	      0.00000000	      0.00000000	      0.00000000	      0.00000000	      0.00000000	      0.00000000	      0.00000000	      0.00000000	      0.00000000	      0.00000000	      0.00000000	      0.00000000	      0.00000000	      0.00000000	      0.00000000	     -7.91646448	    -20.30655922	      6.07050290	     -0.47579376	      0.10064849	     -0.28362643	      7.91646448	     20.30655922	     -6.07050290	      2.89600178	     -0.10742083	      3.41713420	      0.00000000	      0.00000000	      0.00000000	      0.00000000	      0.00000000	      0.00000000	      0.00000000	      0.00000000	      0.00000000	      0.00000000	      0.00000000	      0.00000000	   5085.12950526	    666.93129552	      0.00000000	     22.62471574
      0.00016215	     -0.00000230	     20.00008554	      0.00000000	      0.00000000	     43.53302942	    150.72196223	      0.00000000	    119.94660801	      0.00000000	      0.00000000	      0.00000001	      0.00000000	      0.03247644	      0.02503251	      0.03127217	      0.03046913	      0.06061328	      0.06095954	      0.01525851	      0.01651186	      0.06550154	      0.04489616	     -0.11761997	     -0.15312555	      0.00568784	      0.01945048	     -0.03360664	      0.00819722	      0.00000079	     -0.32847694	      0.00000060	     -0.00000086	      2.76307435	     50.99597937	     -9.56042239	      5.21997485	     -0.02578839	      1.48581788	     -2.76307435	    -50.99597937	      9.56042239	     -1.74637766	      0.02558040	     -0.48301696	     -3.31599387	     20.97615968	     -3.40468921	      0.94473225	     -0.02138609	     -1.00501789	      3.31599387	    -20.97615968	      3.40468921	      0.28075727	      0.00368718	     -0.29758878	   1797.80029778	   2291.10102496	    284.03208290	   -176.65268445	     47.75119335	    744.91390646	  -1797.80029778	  -2291.10102496	   -284.03208290	     79.15822285	    -57.96578865	    -45.42165248	   -197.13218879	    444.41611976	     -3.95653019	      9.90785762	      3.73329565	    -76.74556850	    197.13218879	   -444.41611976	      3.95653019	     -6.23592074	     -2.75505812	      3.67335219	      0.00000000	      0.00000000	      0.00000000	      0.00000000	      0.00000000	      0.00000000	      0.00000000	      0.00000000	      0.00000000	      0.00000000	      0.00000000	      0.00000000	      0.00000000	      0.00000000	      0.00000000	      0.00000000	      0.00000000	      0.00000000	      0.00000000	      0.00000000	      0.00000000	      0.00000000	      0.00000000	      0.00000000	     -4.17979749	    -15.47549925	      5.60234803	     -0.40388326	      0.05908842	     -0.13793183	      4.17979749	     15.47549925	     -5.60234803	      2.62159254	     -0.05017083	      1.81715271	      0.00000000	      0.00000000	      0.00000000	      0.00000000	      0.00000000	      0.00000000	      0.00000000	      0.00000000	      0.00000000	      0.00000000	      0.00000000	      0.00000000	   2926.07314355	    486.19177440	      0.00000000	     16.98081527
      0.00032429	     -0.00000736	     20.00008554	      0.00000000	      0.00000000	     63.34259240	    204.96840053	      0.00000000	    175.15410894	      0.00000000	      0.00000000	      0.00000001	      0.00000000	      0.03249178	      0.02504673	      0.03129554	      0.03049275	      0.06063694	      0.06098545	      0.01525851	      0.01651186	      0.06550154	      0.04489616	     -0.11720317	     -0.15264433	      0.00643948	      0.02024074	     -0.03322954	      0.00862581	      0.00000079	     -0.32847694	      0.00000060	     -0.00000086	      2.76307435	     50.99597937	     -9.56042239	      5.21997485	     -0.02578839	      1.48581788	     -2.76307435	    -50.99597937	      9.56042239	     -1.74637766	      0.02558040	     -0.48301696	     -3.31599387	     20.97615968	     -3.40468921	      0.94473225	     -0.02138609	     -1.00501789	      3.31599387	    -20.97615968	      3.40468921	      0.28075727	      0.00368718	     -0.29758878	   1211.35763260	   1492.56731799	    222.04106439	   -130.33608334	     32.35390260	    502.35151061	  -1211.35763260	  -1492.56731799	   -222.04106439	     52.66056894	    -39.38933357	    -31.29593417	   -197.13580177	    322.09734899	    -12.72663758	     11.33581995	      3.82517405	    -78.75764866	    197.13580177	   -322.09734899	     12.72663758	     -4.90487373	     -2.80200503	      5.03749232	      0.00000000	      0.00000000	      0.00000000	      0.00000000	      0.00000000	      0.00000000	      0.00000000	      0.00000000	      0.00000000	      0.00000000	      0.00000000	      0.00000000	      0.00000000	      0.00000000	      0.00000000	      0.00000000	      0.00000000	      0.00000000	      0.00000000	      0.00000000	      0.00000000	      0.00000000	      0.00000000	      0.00000000	     -2.13866620	     -9.40006434	      4.12926346	     -0.27609711	      0.03327036	     -0.06716478	      2.13866620	      9.40006434	     -4.12926346	      1.90098964	     -0.02217097	      0.93401131	      0.00000000	      0.00000000	      0.00000000	      0.00000000	      0.00000000	      0.00000000	      0.00000000	      0.00000000	      0.00000000	      0.00000000	      0.00000000	      0.00000000	   1935.05729813	    377.85075608	      0.00000000	     10.48741720
      0.00053883	     -0.00001585	     20.00008554	      0.00000000	      0.00000000	     76.23863321	    242.21492159	      0.00000000	    209.89940086	      0.00000000	      0.00000000	      0.00000001	      0.00000000	      0.03251942	      0.02507260	      0.03133540	      0.03053304	      0.06067797	      0.06102990	      0.01525851	      0.01651186	      0.06550154	      0.04489616	     -0.11645205	     -0.15176931	      0.00772133	      0.02158878	     -0.03257531	      0.00936091	      0.00000079	     -0.32847694	      0.00000060	     -0.00000086	      2.76307435	     50.99597937	     -9.56042239	      5.21997485	     -0.02578839	      1.48581788	     -2.76307435	    -50.99597937	      9.56042239	     -1.74637766	      0.02558040	     -0.48301696	     -3.31599387	     20.97615968	     -3.40468921	      0.94473225	     -0.02138609	     -1.00501789	      3.31599387	    -20.97615968	      3.40468921	      0.28075727	      0.00368718	     -0.29758878	    900.06733690	   1034.89084377	    148.02486448	    -87.73897265	     23.90383806	    373.58212166	   -900.06733690	  -1034.89084377	   -148.02486448	     36.14047676	    -29.03635401	    -23.95359997	   -168.38338176	    231.62781792	    -19.39246533	     12.45094589	      3.34894141	    -67.97489011	    168.38338176	   -231.62781792	     19.39246533	     -3.90993618	     -2.43174208	      4.76914510	      0.00000000	      0.00000000	      0.00000000	      0.00000000	      0.00000000	      0.00000000	      0.00000000	      0.00000000	      0.00000000	      0.00000000	      0.00000000	      0.00000000	      0.00000000	      0.00000000	      0.00000000	      0.00000000	      0.00000000	      0.00000000	      0.00000000	      0.00000000	      0.00000000	      0.00000000	      0.00000000	      0.00000000	     -0.65523599	     -3.28337732	      1.64461420	     -0.10519854	      0.01090218	     -0.02010359	      0.65523599	      3.28337732	     -1.64461420	      0.75017725	     -0.00556303	      0.28773092	      0.00000000	      0.00000000	      0.00000000	      0.00000000	      0.00000000	      0.00000000	      0.00000000	      0.00000000	      0.00000000	      0.00000000	      0.00000000	      0.00000000	   1379.50412467	    287.01999407	      0.00000000	      3.73023548
      0.00075338	     -0.00002520	     20.00008554	      0.00000000	      0.00000000	     81.70799081	    259.70717407	      0.00000000	    223.01638590	      0.00000000	      0.00000000	      0.00000001	      0.00000000	      0.03255109	      0.02510238	      0.03137969	      0.03057781	      0.06072396	      0.06107946	      0.01525851	      0.01651186	      0.06550154	      0.04489616	     -0.11559160	     -0.15076179	      0.00914566	      0.02308671	     -0.03184209	      0.01018061	      0.00000079	     -0.32847694	      0.00000060	     -0.00000086	      2.76307435	     50.99597937	     -9.56042239	      5.21997485	     -0.02578839	      1.48581788	     -2.76307435	    -50.99597937	      9.56042239	     -1.74637766	      0.02558040	     -0.48301696	     -3.31599387	     20.97615968	     -3.40468921	      0.94473225	     -0.02138609	     -1.00501789	      3.31599387	    -20.97615968	      3.40468921	      0.28075727	      0.00368718	     -0.29758878	    736.30049569	    838.89243913	    111.15967863	    -67.33561400	     19.47389879	    305.63255861	   -736.30049569	   -838.89243913	   -111.15967863	     28.88010608	    -23.61615809	    -19.65008784	   -141.41920136	    179.39680354	    -22.62993736	     12.83117802	      2.87299566	    -57.33061269	    141.41920136	   -179.39680354	     22.62993736	     -3.30480597	     -2.07080798	      4.15759663	      0.00000000	      0.00000000	      0.00000000	      0.00000000	      0.00000000	      0.00000000	      0.00000000	      0.00000000	      0.00000000	      0.00000000	      0.00000000	      0.00000000	      0.00000000	      0.00000000	      0.00000000	      0.00000000	      0.00000000	      0.00000000	      0.00000000	      0.00000000	      0.00000000	      0.00000000	      0.00000000	      0.00000000	     -0.06263405	     -0.37917131	      0.20937680	     -0.01301256	      0.00104947	     -0.00197933	      0.06263405	      0.37917131	     -0.20937680	      0.09494425	     -0.00027410	      0.02789296	      0.00000000	      0.00000000	      0.00000000	      0.00000000	      0.00000000	      0.00000000	      0.00000000	      0.00000000	      0.00000000	      0.00000000	      0.00000000	      0.00000000	   1121.71093359	    229.55330034	      0.00000000	      0.43764432
